<svg xmlns="http://www.w3.org/2000/svg" aria-hidden="true" focusable="false">
  <symbol id="suit-heart" viewBox="0 0 64 64">
    <path d="M32 56C20 46 6 34.8 6 22.3 6 14.1 12.5 8 20.2 8c5.2 0 9.8 2.6 11.8 6.7C34 10.6 38.6 8 43.8 8 51.5 8 58 14.1 58 22.3 58 34.8 44 46 32 56z" />
    <path d="M32 52.2C22.2 44.4 10.8 34.1 10.8 23 10.8 17.1 15.5 12.8 21 12.8c4 0 7.6 2.1 9.1 5.4l1.9 4.2 1.9-4.2c1.5-3.3 5.1-5.4 9.1-5.4 5.5 0 10.2 4.3 10.2 10.2 0 11.1-11.4 21.4-21.2 29.2z" fill="currentColor" opacity="0.18" />
  </symbol>
  <symbol id="suit-diamond" viewBox="0 0 64 64">
    <path d="M32 6l20 26-20 26L12 32 32 6z" />
    <path d="M32 12l15.2 20L32 52 16.8 32 32 12z" fill="currentColor" opacity="0.18" />
  </symbol>
  <symbol id="suit-club" viewBox="0 0 64 64">
    <path d="M36.8 34.6c6.1 0 11-4.7 11-10.6 0-5.9-4.9-10.6-11-10.6-4.1 0-7.7 2.1-9.6 5.3-1.9-3.2-5.5-5.3-9.6-5.3-6.1 0-11 4.7-11 10.6 0 5.5 4.3 10 9.9 10.6-4.4.7-7.7 4.3-7.7 8.6 0 4.9 4.1 8.8 9.1 8.8h7.4l-3.4 7.1h19l-3.4-7.1h7.4c5 0 9.1-3.9 9.1-8.8 0-4.3-3.3-7.9-7.7-8.6z" />
    <path d="M31.9 39.6c-1.6-3.4-5.1-5.7-9.2-5.7-4.2 0-7.8 2.3-9.3 5.8 0.5 3 3.2 5.2 6.5 5.2h7.4l-1.8 3.8h13l-1.8-3.8h7.4c3.3 0 6-2.2 6.5-5.2-1.5-3.5-5.1-5.8-9.3-5.8-4.1 0-7.6 2.3-9.2 5.7z" fill="currentColor" opacity="0.18" />
  </symbol>
  <symbol id="suit-spade" viewBox="0 0 64 64">
    <path d="M32 6C22 16.7 8 28.5 8 39.5 8 46.4 13.6 52 20.5 52h6.4l-3.5 6h17.2l-3.5-6h6.4C50.4 52 56 46.4 56 39.5 56 28.5 42 16.7 32 6z" />
    <path d="M32 12.6C23.9 21 12.8 30.4 12.8 39.3c0 4.7 3.8 8.5 8.5 8.5h7l-1.8 3.2h11l-1.8-3.2h7c4.7 0 8.5-3.8 8.5-8.5 0-8.9-11.1-18.3-19.2-26.7z" fill="currentColor" opacity="0.18" />
  </symbol>
</svg>
